<svg xmlns="http://www.w3.org/2000/svg" width="160" height="62" viewBox="0 0 160 62">
    <g fill="none" fill-rule="evenodd">
        <path fill="#000" d="M.018 48.325h159.448v-.759H.018v.759zM48.34 58.467v1.132h1.312v.851c-.33.239-.754.358-1.227.358-1.05 0-1.795-.8-1.795-1.89V58.9c0-1.013.753-1.856 1.701-1.856.686 0 1.092.221 1.55.604l.82-.996c-.617-.527-1.26-.817-2.327-.817-1.795 0-3.107 1.388-3.107 3.082v.017c0 1.763 1.27 3.065 3.115 3.065a3.833 3.833 0 0 0 2.532-.945v-2.588H48.34zm-5.393-.494c0-.562-.39-.851-1.024-.851h-1.295v1.71h1.32c.635 0 1-.34 1-.842v-.017zm.051 1.796l1.447 2.129h-1.523l-1.27-1.908h-1.024v1.908h-1.304v-5.96h2.709c.753 0 1.338.213 1.727.605.33.332.508.8.508 1.362v.017c0 .962-.517 1.566-1.27 1.847zm11.742-1.438c-1.024-.264-1.278-.393-1.278-.784v-.017c0-.29.262-.52.762-.52s1.015.222 1.54.589l.678-.988c-.601-.485-1.338-.758-2.202-.758-1.21 0-2.074.715-2.074 1.796v.017c0 1.184.77 1.516 1.964 1.822.991.256 1.194.427 1.194.758v.017c0 .35-.321.562-.855.562-.677 0-1.236-.28-1.77-.723l-.77.928a3.76 3.76 0 0 0 2.515.953c1.278 0 2.176-.664 2.176-1.847v-.018c0-1.038-.678-1.472-1.88-1.787zm15.84-2.393h-4.91v1.21h1.803v4.75h1.303v-4.75h1.804v-1.21zm3.81 3.465l-.788-1.932-.788 1.932h1.575zm-.17-3.507l2.54 6.002h-1.363l-.542-1.337h-2.506l-.542 1.337h-1.329l2.54-6.002h1.202zM63.036 58.33c-1.024-.264-1.278-.393-1.278-.784v-.017c0-.29.262-.52.762-.52s1.016.222 1.54.589l.678-.988c-.6-.485-1.338-.758-2.201-.758-1.21 0-2.074.715-2.074 1.796v.017c0 1.184.77 1.516 1.964 1.822.99.256 1.194.427 1.194.758v.017c0 .35-.322.562-.855.562-.678 0-1.236-.28-1.77-.723l-.77.928a3.76 3.76 0 0 0 2.514.953c1.279 0 2.176-.664 2.176-1.847v-.018c0-1.038-.677-1.472-1.88-1.787zm-51.294.587c0-1.022-.745-1.873-1.795-1.873-1.05 0-1.777.834-1.777 1.856v.017c0 1.022.745 1.873 1.794 1.873 1.05 0 1.778-.834 1.778-1.856v-.017zm1.364-.017v.017c0 1.694-1.33 3.082-3.159 3.082-1.828 0-3.14-1.37-3.14-3.065v-.017c0-1.694 1.329-3.082 3.157-3.082 1.829 0 3.142 1.37 3.142 3.065zm23.61.017c0-1.022-.745-1.873-1.794-1.873-1.05 0-1.778.834-1.778 1.856v.017c0 1.022.745 1.873 1.794 1.873 1.05 0 1.778-.834 1.778-1.856v-.017zm1.363-.017v.017c0 1.694-1.328 3.082-3.157 3.082-1.83 0-3.141-1.37-3.141-3.065v-.017c0-1.694 1.329-3.082 3.157-3.082 1.829 0 3.141 1.37 3.141 3.065zm-24.322-1.754h1.803v4.75h1.304v-4.75h1.803v-1.21h-4.91v1.21zm7.374 2.333h2.793v-1.167h-2.793v-1.209h3.175v-1.166h-4.47v5.96h4.512V60.73H21.13V59.48zm8.372.604c0-.4-.296-.647-.964-.647h-1.507v1.312h1.549c.576 0 .922-.205.922-.647v-.018zm-2.471-1.736h1.202c.576 0 .94-.187.94-.63V57.7c0-.392-.306-.614-.856-.614h-1.286v1.26zm3.767 1.898v.017c0 1.09-.88 1.635-2.218 1.635h-2.82v-5.96h2.752c.677 0 1.21.188 1.55.528.27.272.406.605.406 1.013v.017c0 .673-.356 1.047-.78 1.286.687.264 1.11.664 1.11 1.464zm120.71-.843l-.788-1.932-.787 1.932h1.575zm-.17-3.507l2.54 6.002h-1.363l-.542-1.337h-2.506l-.541 1.337h-1.33l2.54-6.002h1.202zm-14.925 3.712l-2.777-3.67h-1.202v5.96h1.287v-3.789l2.87 3.789h1.109v-5.96h-1.287v3.67zm5.689-.009h1.312v.851c-.33.239-.753.358-1.227.358-1.05 0-1.795-.8-1.795-1.89V58.9c0-1.013.753-1.856 1.701-1.856.686 0 1.092.221 1.55.604l.821-.996c-.618-.527-1.262-.817-2.328-.817-1.795 0-3.107 1.388-3.107 3.082v.017c0 1.763 1.27 3.065 3.115 3.065a3.833 3.833 0 0 0 2.532-.945v-2.588h-2.574v1.132zm16.602.485c0-.4-.297-.647-.966-.647h-1.507v1.312h1.55c.575 0 .923-.205.923-.647v-.018zm-2.473-1.736h1.203c.575 0 .94-.187.94-.63V57.7c0-.392-.305-.614-.856-.614h-1.287v1.26zM160 60.246v.017c0 1.09-.88 1.635-2.218 1.635h-2.82v-5.96h2.752c.677 0 1.21.188 1.55.528.27.272.406.605.406 1.013v.017c0 .673-.356 1.047-.779 1.286.686.264 1.109.664 1.109 1.464zm-30.52 1.652h1.304v-5.96h-1.303v5.96zm-47.54-2.98c0-1.056-.719-1.796-1.786-1.796h-1.007v3.592h1.007c1.067 0 1.787-.724 1.787-1.779v-.017zm1.364-.017v.017c0 1.677-1.287 2.98-3.15 2.98h-2.31v-5.96h2.31c1.863 0 3.15 1.286 3.15 2.963zm-80.231.698h1.313v.851c-.33.239-.754.358-1.228.358-1.05 0-1.795-.8-1.795-1.89V58.9c0-1.013.753-1.856 1.702-1.856.685 0 1.092.221 1.55.604l.82-.996c-.618-.527-1.261-.817-2.328-.817C1.312 55.836 0 57.224 0 58.918v.017C0 60.698 1.27 62 3.116 62a3.833 3.833 0 0 0 2.531-.945v-2.588H3.073v1.132zm92.857-1.575c0-.588-.406-.902-1.058-.902h-1.007v1.821h1.032c.652 0 1.033-.391 1.033-.902v-.017zM97.251 58v.016c0 1.38-1.067 2.095-2.396 2.095h-.99v1.788H92.56v-5.96h2.421c1.414 0 2.27.843 2.27 2.06zm-10.298.332c-1.025-.264-1.279-.393-1.279-.784v-.017c0-.29.263-.52.762-.52.5 0 1.016.222 1.54.589l.678-.988c-.6-.485-1.337-.758-2.2-.758-1.211 0-2.075.715-2.075 1.796v.017c0 1.184.77 1.516 1.964 1.822.99.256 1.193.427 1.193.758v.017c0 .35-.32.562-.854.562-.677 0-1.237-.28-1.77-.723l-.77.928a3.76 3.76 0 0 0 2.514.953c1.279 0 2.176-.664 2.176-1.847v-.018c0-1.038-.677-1.472-1.88-1.787zm39.802-.358c0-.562-.39-.851-1.025-.851h-1.295v1.71h1.32c.635 0 1-.34 1-.842v-.017zm.05 1.796l1.448 2.129h-1.524l-1.27-1.908h-1.024v1.908h-1.304v-5.96h2.71c.753 0 1.337.213 1.726.605.33.332.509.8.509 1.362v.017c0 .962-.517 1.566-1.27 1.847zm-8.22-.289h2.794v-1.167h-2.794v-1.209h3.175v-1.166h-4.47v5.96h4.512V60.73h-3.217V59.48zm-10.312-1.507c0-.562-.389-.851-1.024-.851h-1.295v1.71h1.32c.636 0 1-.34 1-.842v-.017zm.051 1.796l1.448 2.129h-1.524l-1.27-1.908h-1.024v1.908h-1.304v-5.96h2.71c.753 0 1.337.213 1.726.605.33.332.508.8.508 1.362v.017c0 .962-.516 1.566-1.27 1.847zm-7.128-.366l-.787-1.932-.787 1.932h1.574zm-.169-3.507l2.54 6.002h-1.363l-.542-1.337h-2.506l-.542 1.337h-1.33l2.54-6.002h1.203zm15.196.042h-1.575l-2.404 2.605v-2.605h-1.304v5.96h1.304v-1.822l.685-.715 1.838 2.537h1.566l-2.523-3.431 2.413-2.53zM8.415 55.384h1.236v-1.08H8.415v1.08zm1.846 0h1.236v-1.08h-1.236v1.08zm58.886-27.859a.776.776 0 0 0-.772.776v.094c0 .427.348.776.772.776h.094a.776.776 0 0 0 .77-.776v-.094a.776.776 0 0 0-.77-.776h-.094zm-4.36 1.646h.093a.776.776 0 0 0 .771-.776v-.094a.776.776 0 0 0-.771-.776h-.094a.776.776 0 0 0-.771.776v.094c0 .427.347.776.771.776zm-1.466 5.496v.027c0 2.153 1.562 3.914 3.717 3.914 2.155 0 3.69-1.733 3.69-3.887v-.027c0-2.154-1.562-3.915-3.717-3.915-2.155 0-3.69 1.734-3.69 3.888zm3.717-4.877c2.869 0 4.795 2.263 4.795 4.877v.027c0 2.614-1.953 4.903-4.822 4.903-2.869 0-4.795-2.262-4.795-4.876v-.027c0-2.614 1.953-4.904 4.822-4.904zm62.751.989c1.333 0 2.141.447 2.869 1.084l.687-.813c-.943-.8-1.927-1.26-3.516-1.26-2.828 0-4.727 2.303-4.727 4.904v.027c0 2.709 1.832 4.876 4.795 4.876 1.59 0 2.91-.664 3.784-1.45V34.37h-3.892v.961h2.869v2.357c-.647.528-1.644.948-2.721.948-2.29 0-3.731-1.68-3.731-3.941v-.027c0-2.113 1.495-3.888 3.583-3.888zm-13.404 4.01h2.896c1.414 0 2.424-.732 2.424-1.951v-.027c0-1.165-.89-1.87-2.41-1.87h-2.91v3.847zm-1.064-4.836h4.054c1.159 0 2.088.352 2.68.948.458.46.727 1.124.727 1.87v.026c0 1.572-1.077 2.493-2.559 2.764l2.896 3.873h-1.306l-2.734-3.684h-2.694v3.684h-1.064v-9.481zm-7.492 8.655c2.155 0 3.69-1.733 3.69-3.887v-.027c0-2.154-1.562-3.915-3.717-3.915-2.155 0-3.69 1.734-3.69 3.888v.027c0 2.153 1.562 3.914 3.717 3.914zm-.027.989c-2.869 0-4.795-2.262-4.795-4.876v-.027c0-2.614 1.953-4.904 4.822-4.904 2.869 0 4.795 2.263 4.795 4.877v.027c0 2.614-1.953 4.903-4.822 4.903zm-13.53-1.124h3.137c1.416 0 2.297-.637 2.297-1.693v-.028c0-1.029-.855-1.625-2.484-1.625h-2.95v3.346zm0-4.294h2.764c1.269 0 2.15-.583 2.15-1.694v-.027c0-.934-.735-1.543-2.07-1.543h-2.844v3.264zm3.11 5.255h-4.151v-9.481h3.979c1.067 0 1.909.311 2.442.84.388.406.602.907.602 1.517v.027c0 1.232-.748 1.869-1.483 2.194 1.109.339 2.003.989 2.003 2.29v.026c0 1.626-1.348 2.587-3.391 2.587zm-7.187-8.506v-.975h-6.677v9.481h6.743v-.975h-5.7v-3.318h5.04v-.975h-5.04v-3.238h5.634zm-12.54 8.506v-8.492h3.166v-.99h-7.408v.99h3.165v8.492h1.078zm-27.07-4.74v.027c0 2.709 1.833 4.876 4.795 4.876 1.59 0 2.91-.664 3.785-1.45V34.37h-3.892v.961h2.868v2.357c-.646.528-1.643.948-2.72.948-2.29 0-3.73-1.68-3.73-3.941v-.027c0-2.113 1.494-3.888 3.582-3.888 1.333 0 2.141.447 2.868 1.084l.688-.813c-.943-.8-1.927-1.26-3.516-1.26-2.829 0-4.727 2.303-4.727 4.904zm97.103-15.748v.035c0 3.666 2.641 6.375 6.48 6.375 2.253 0 3.997-.886 5.264-1.965v-5.384h-5.352v2.355h2.73v1.771c-.688.496-1.568.744-2.554.744-2.183 0-3.733-1.665-3.733-3.931v-.036c0-2.107 1.567-3.86 3.54-3.86 1.426 0 2.27.46 3.221 1.257l1.708-2.071c-1.285-1.098-2.623-1.7-4.842-1.7-3.733 0-6.462 2.886-6.462 6.41zm-13.355-6.198v12.395h2.676v-7.88l5.97 7.88h2.306V12.748h-2.677v7.632l-5.775-7.632h-2.5zm-5.972 12.395h2.711V12.748h-2.711v12.395zm-7.977-9.933h-2.694v3.559h2.747c1.32 0 2.077-.709 2.077-1.753v-.036c0-1.168-.81-1.77-2.13-1.77zm3.82-1.205c.687.691 1.057 1.665 1.057 2.834v.035c0 2.001-1.074 3.258-2.64 3.843l3.01 4.426h-3.169l-2.642-3.966h-2.13v3.966h-2.711V12.748h5.634c1.567 0 2.781.443 3.592 1.257zm-21.551 11.138h9.384v-2.426h-6.69v-2.603h5.81V17.69h-5.81v-2.515h6.602v-2.426h-9.296v12.395zm-13.195 0h2.712v-3.789l1.426-1.487 3.82 5.276h3.259l-5.248-7.136 5.018-5.259H97.17l-5 5.418v-5.418h-2.712v12.395zm-8.11-9.933h-2.693v3.559h2.747c1.32 0 2.078-.709 2.078-1.753v-.036c0-1.168-.81-1.77-2.131-1.77zm3.822-1.205c.687.691 1.056 1.665 1.056 2.834v.035c0 2.001-1.074 3.258-2.64 3.843l3.01 4.426h-3.17l-2.64-3.966h-2.13v3.966h-2.713V12.748h5.635c1.567 0 2.782.443 3.592 1.257zm-17.875 1.93l-1.637 4.02h3.274l-1.637-4.02zm1.285-3.275l5.283 12.483h-2.835l-1.127-2.78h-5.212l-1.127 2.78h-2.764L66.08 12.66h2.5zm-12.978 2.55h-2.094v3.789h2.147c1.356 0 2.149-.815 2.149-1.877v-.035c0-1.222-.846-1.877-2.202-1.877zm4.948 1.823v.036c0 2.868-2.218 4.356-4.983 4.356h-2.06v3.718h-2.712V12.748h5.036c2.941 0 4.72 1.753 4.72 4.285zM39.822 35.557V19.072c-.811 2.15-2.057 4.013-3.717 5.52-2.9 2.633-7.013 4.082-11.58 4.082h-7.692v11.327h18.57c2.44 0 4.42-1.99 4.42-4.444zM.047 4.445v31.112C.047 38.01 2.025 40 4.467 40h4.682V0H4.466C2.026 0 .046 1.99.046 4.445zm33.092 8.207v.132c0 4.755-3.37 7.95-8.383 7.95h-7.923V4.702h7.923c5.327 0 8.383 2.898 8.383 7.95z"/>
    </g>
</svg>
